<?xml version="1.0" standalone="no"?>
<!DOCTYPE svg PUBLIC "-//W3C//DTD SVG 20010904//EN"
 "http://www.w3.org/TR/2001/REC-SVG-20010904/DTD/svg10.dtd">
<svg version="1.0" xmlns="http://www.w3.org/2000/svg"
 width="598.000000pt" height="598.000000pt" viewBox="0 0 598.000000 598.000000"
 preserveAspectRatio="xMidYMid meet">
<metadata>
Created by potrace 1.14, written by Peter Selinger 2001-2017
</metadata>
<g transform="translate(0.000000,598.000000) scale(0.100000,-0.100000)"
fill="#000000" stroke="none">
<path d="M2807 5864 c-1 -1 -45 -5 -97 -9 -52 -4 -104 -9 -115 -11 -11 -2 -40
-7 -65 -10 -144 -20 -472 -121 -680 -211 -162 -69 -405 -202 -452 -246 -7 -7
-40 -32 -73 -56 -33 -25 -62 -47 -65 -50 -3 -3 -39 -35 -80 -71 -188 -162
-393 -371 -510 -520 -45 -56 -110 -148 -110 -155 0 -2 -16 -30 -36 -61 -100
-156 -252 -514 -300 -704 -16 -66 -26 -108 -30 -125 -2 -11 -6 -31 -9 -45 -15
-70 -24 -119 -31 -171 -3 -24 -7 -55 -9 -69 -19 -130 -25 -465 -11 -605 9 -91
16 -154 22 -185 19 -114 34 -186 55 -270 11 -41 21 -82 24 -90 78 -304 292
-726 481 -950 208 -246 418 -451 619 -603 164 -124 389 -249 590 -327 44 -17
89 -34 100 -39 11 -5 54 -19 95 -31 41 -12 92 -29 112 -36 21 -8 38 -12 38
-10 0 3 15 0 33 -5 43 -13 156 -36 242 -49 72 -12 86 -14 190 -25 32 -4 63 -8
66 -11 4 -2 10 0 14 5 3 6 15 7 28 2 37 -13 382 -4 497 13 26 4 110 16 145 21
44 7 215 46 280 66 39 11 75 21 82 23 7 1 16 5 19 9 4 4 15 7 25 7 9 0 39 9
66 21 26 11 56 21 66 22 9 1 17 4 17 7 0 3 24 14 53 25 114 40 325 153 489
262 206 137 462 367 607 543 29 36 58 70 65 75 21 18 153 208 210 303 108 179
245 491 272 621 3 14 8 29 12 35 3 6 7 16 8 21 1 6 12 46 23 90 31 114 49 206
65 335 31 235 25 609 -13 840 -49 296 -106 485 -218 720 -92 196 -216 395
-359 580 -91 117 -329 365 -419 436 -27 21 -52 41 -55 44 -20 20 -120 94 -169
125 -62 40 -148 96 -157 102 -62 45 -318 165 -494 231 -161 61 -460 132 -620
147 -14 1 -59 6 -100 10 -66 7 -427 14 -433 9z m378 -608 c103 -6 156 -12 237
-26 32 -6 68 -12 80 -14 184 -32 569 -187 708 -286 16 -11 33 -20 38 -20 6 0
12 -4 14 -8 2 -5 26 -23 53 -42 159 -107 364 -301 485 -460 14 -17 31 -38 38
-45 6 -8 12 -18 12 -23 0 -6 4 -12 8 -14 20 -8 131 -195 193 -324 38 -78 69
-145 69 -149 0 -3 8 -25 19 -48 41 -94 94 -253 107 -321 7 -42 -72 -132 -476
-537 -146 -146 -287 -283 -313 -304 l-48 -38 -47 34 c-43 30 -144 130 -658
651 -365 371 -473 445 -655 453 -95 5 -289 -39 -311 -70 -4 -5 -8 -6 -8 -2 0
8 -53 -26 -77 -49 -23 -22 -14 -52 33 -111 51 -64 388 -400 674 -673 101 -96
205 -195 231 -220 26 -25 111 -106 189 -180 79 -74 162 -154 186 -178 l43 -42
-112 -110 c-161 -157 -261 -230 -427 -307 -138 -65 -199 -76 -435 -77 -110 -1
-220 2 -245 7 -276 46 -473 141 -645 311 -79 78 -165 185 -165 205 0 5 -4 11
-9 13 -8 3 -60 103 -139 268 -49 101 -63 119 -89 109 -12 -4 -123 -108 -246
-231 -200 -200 -222 -225 -212 -243 32 -58 59 -111 60 -115 2 -13 116 -185
147 -221 13 -15 34 -41 48 -59 175 -231 481 -461 765 -574 106 -43 251 -87
325 -101 149 -26 186 -30 355 -30 150 0 258 7 305 20 8 2 29 7 45 10 17 3 44
8 60 11 62 11 272 86 355 127 134 65 235 135 356 242 178 159 323 296 560 530
202 199 420 410 465 450 19 17 46 41 61 54 30 26 71 23 48 -4 -7 -8 -10 -15
-7 -15 9 0 -70 -246 -113 -350 -30 -73 -130 -274 -140 -280 -4 -3 -10 -15 -14
-27 -4 -13 -12 -23 -17 -23 -5 0 -9 -6 -9 -12 -1 -33 -199 -286 -316 -402
-195 -196 -383 -332 -609 -440 -55 -26 -109 -53 -119 -58 -41 -22 -245 -90
-326 -110 -110 -26 -117 -28 -165 -34 -22 -3 -51 -7 -65 -10 -56 -9 -213 -18
-335 -17 -119 0 -302 10 -315 18 -3 1 -27 6 -55 9 -27 4 -75 11 -105 17 -30 7
-59 12 -65 13 -39 8 -82 19 -90 24 -5 4 -19 7 -30 9 -85 9 -519 208 -533 244
-2 5 -8 9 -14 9 -8 0 -122 77 -155 105 -7 5 -26 21 -43 35 -193 155 -387 364
-514 554 -123 185 -274 527 -282 639 -7 107 21 141 451 552 104 99 210 200
235 225 26 25 63 60 82 79 l36 33 184 -187 c604 -619 820 -826 953 -910 127
-82 246 -90 425 -29 122 42 190 89 190 133 0 23 -36 77 -80 123 -8 8 -31 33
-51 54 -29 32 -226 222 -469 454 -369 352 -716 695 -732 724 -13 23 1 42 84
121 134 128 240 209 351 270 59 32 194 82 247 92 14 2 41 8 60 13 102 25 379
27 455 3 11 -3 29 -7 40 -9 21 -2 116 -27 150 -39 22 -7 43 -16 90 -35 17 -6
32 -12 35 -12 3 0 17 -9 32 -19 14 -10 31 -19 36 -19 5 0 52 -28 103 -61 112
-73 246 -206 308 -304 61 -96 68 -109 67 -115 -1 -3 7 -17 16 -32 9 -14 40
-81 68 -149 29 -68 53 -126 55 -127 10 -11 380 357 424 421 35 51 49 101 31
112 -5 3 -10 13 -10 20 0 34 -140 244 -255 384 -59 71 -196 199 -279 261 -53
38 -98 70 -101 70 -2 0 -28 15 -57 33 -123 78 -422 215 -458 209 -3 0 -10 4
-16 9 -9 7 -82 25 -179 43 -102 19 -389 25 -525 11 -41 -4 -86 -9 -100 -10
-47 -5 -166 -28 -190 -38 -8 -3 -46 -15 -84 -27 -100 -31 -220 -91 -332 -166
-55 -36 -101 -69 -104 -73 -3 -3 -23 -19 -45 -36 -21 -16 -46 -36 -55 -45 -9
-8 -43 -37 -75 -65 -33 -27 -67 -57 -76 -65 -166 -155 -308 -291 -429 -410
-155 -152 -444 -431 -514 -494 -44 -40 -60 -45 -52 -18 3 9 7 29 10 43 19 116
120 439 162 521 8 15 14 30 14 33 0 7 77 150 107 197 12 21 23 42 23 47 0 5 3
11 8 13 4 2 28 36 55 75 26 40 55 83 65 94 242 300 461 482 774 643 184 96
466 195 598 212 25 3 54 8 65 11 23 7 45 9 185 18 57 3 105 7 106 8 4 4 178
-1 269 -7z"/>
</g>
</svg>
