<svg version="1.0" xmlns="http://www.w3.org/2000/svg" preserveAspectRatio="xMidYMid meet" viewBox="286.27 140.74 298.31 299.01" transform="scale(0.75)">  
    <g transform="translate(0.000000,579.000000) scale(0.150000,-0.150000)" fill="#7c3aedd9" stroke="black" stroke-width="10pt"> 
        <path d="M2765 2869 c-98 -13 -251 -68 -347 -125 -96 -57 -255 -209 -313 -299 -198 -305 -203 -704 -13 -1016 68 -112 215 -257 325 -323 374 -221 846 -163 1154 144 130 130 207 264 254 445 50 188 31 432 -45 601 -184 406 -578 628 -1015 573z m320 -198 c199 -48 363 -166 472 -339 43 -68 103 -216 103 -254 0 -16 -250 -271 -283 -290 -10 -5 -63 44 -169 155 -172 180 -217 216 -277 224 -43 6 -120 -17 -140 -41 -8 -9 46 -66 224 -236 l235 -224 -52 -53 c-30 -31 -81 -68 -118 -86 -54 -27 -78 -33 -151 -35 -191 -8 -333 77 -405 243 -16 36 -31 65 -34 65 -3 0 -39 -33 -79 -74 l-73 -74 28 -53 c16 -29 57 -83 91 -119 203 -216 524 -258 761 -100 32 22 144 125 250 231 209 208 213 210 166 71 -62 -188 -207 -355 -382 -442 -118 -58 -212 -80 -345 -80 -216 1 -389 73 -542 225 -84 84 -131 154 -172 256 -47 115 -50 106 108 257 l140 134 177 -181 c174 -178 218 -211 274 -211 36 0 94 19 118 38 21 17 20 19 -209 237 -127 121 -231 224 -231 231 0 21 110 115 165 140 111 51 247 48 360 -7 95 -46 155 -111 197 -211 l23 -56 73 68 c39 38 72 77 72 87 0 31 -78 140 -143 199 -68 61 -187 124 -277 145 -75 18 -211 16 -290 -5 -116 -30 -188 -83 -403 -295 -108 -107 -199 -192 -201 -190 -7 8 23 128 47 188 93 229 284 397 527 460 102 27 258 27 365 2z"/> 
    </g> 
</svg>
